<svg width="16" height="16" viewBox="0 0 16 16" fill="none" xmlns="http://www.w3.org/2000/svg">
<g clip-path="url(#clip0_3_2543)">
<path fill-rule="evenodd" clip-rule="evenodd" d="M8 3.05176e-05C6.41775 3.05176e-05 4.87103 0.469222 3.55544 1.34827C2.23985 2.22732 1.21447 3.47675 0.608967 4.93856C0.00346625 6.40037 -0.15496 8.0089 0.153721 9.56075C0.462403 11.1126 1.22433 12.5381 2.34315 13.6569C3.46197 14.7757 4.88743 15.5376 6.43928 15.8463C7.99113 16.155 9.59966 15.9966 11.0615 15.3911C12.5233 14.7856 13.7727 13.7602 14.6518 12.4446C15.5308 11.129 16 9.58228 16 8.00003C16 5.8783 15.1571 3.84347 13.6569 2.34318C12.1566 0.842885 10.1217 3.05176e-05 8 3.05176e-05ZM9 13H7V7.00003H9V13ZM9 5.00003L7 4.93856V3.00003H9L9 5.00003Z" fill="black"/>
</g>
<defs>
<clipPath id="clip0_3_2543">
<rect width="16" height="16" fill="white"/>
</clipPath>
</defs>
</svg>
