<svg width="16" height="16" viewBox="0 0 16 16" fill="none" xmlns="http://www.w3.org/2000/svg">
<g clip-path="url(#clip0_3_2541)">
<path fill-rule="evenodd" clip-rule="evenodd" d="M8 16C6.41775 16 4.87103 15.5308 3.55544 14.6518C2.23985 13.7727 1.21447 12.5233 0.608967 11.0615C0.00346625 9.59969 -0.15496 7.99116 0.153721 6.43931C0.462403 4.88746 1.22433 3.462 2.34315 2.34318C3.46197 1.22436 4.88743 0.462434 6.43928 0.153752C7.99113 -0.15493 9.59966 0.00349677 11.0615 0.608998C12.5233 1.2145 13.7727 2.23988 14.6518 3.55547C15.5308 4.87107 16 6.41778 16 8.00003C16 10.1218 15.1571 12.1566 13.6569 13.6569C12.1566 15.1572 10.1217 16 8 16ZM9 2.00003H7V10H9V2.00003ZM9 12H7V14H9V12Z" fill="black"/>
</g>
<defs>
<clipPath id="clip0_3_2541">
<rect width="16" height="16" fill="white"/>
</clipPath>
</defs>
</svg>
