<svg width="16" height="16" viewBox="0 0 16 16" fill="none" xmlns="http://www.w3.org/2000/svg">
<path d="M14.903 5.9408C14.6003 7.82476 13.6345 9.54097 12.1773 10.7842C10.7201 12.0274 8.86601 12.7169 6.94494 12.7301C6.55581 12.745 6.16618 12.7215 5.78173 12.66C4.9777 12.5244 4.24482 12.1191 3.70531 11.5118C3.1658 10.9045 2.85228 10.1319 2.81703 9.32289C2.8248 8.42051 3.18958 7.55735 3.83264 6.91967C4.47566 6.28204 5.34543 5.92108 6.25417 5.9147C7.16292 5.90833 8.03773 6.25706 8.68977 6.8856C9.34184 7.51417 9.71887 8.37212 9.7395 9.27429C9.75404 9.8441 9.50546 10.3439 8.99459 10.3583C8.44876 10.3583 8.19289 9.97159 8.19289 9.45038V8.00208C8.19309 7.76788 8.10001 7.54309 7.93397 7.37676C7.76792 7.21042 7.54237 7.11603 7.3065 7.11416H6.08389C5.72825 7.11172 5.37768 7.19783 5.0642 7.36461C4.75073 7.53139 4.48435 7.77354 4.28943 8.0689C4.09448 8.36425 3.97717 8.7034 3.94822 9.05536C3.91928 9.40733 3.97961 9.76088 4.12372 10.0837C4.26782 10.4066 4.49111 10.6884 4.77317 10.9035C5.05522 11.1186 5.38707 11.2601 5.73838 11.315C6.08968 11.3699 6.44924 11.3365 6.78419 11.2179C7.11915 11.0992 7.41882 10.8991 7.65582 10.6359L7.69857 10.5725L7.74137 10.6428C7.88842 10.8412 8.08256 11.0004 8.30653 11.1063C8.53049 11.2122 8.77735 11.2616 9.02514 11.2499C9.46681 11.218 9.87844 11.016 10.1721 10.6869C10.4658 10.3578 10.6183 9.92771 10.5971 9.4885C10.6014 9.1116 10.5588 8.73562 10.4704 8.36906C10.2437 7.33357 9.63895 6.41805 8.7728 5.7991C7.90666 5.18014 6.84042 4.90149 5.77964 5.01687C4.71886 5.13224 3.73865 5.63348 3.028 6.42393C2.31729 7.21445 1.92643 8.23821 1.93075 9.29788C1.94438 10.4215 2.3961 11.4962 3.19098 12.296C3.98579 13.0959 5.06193 13.5586 6.1932 13.5871C6.1932 13.5871 6.51338 13.616 6.87435 13.6077C8.629 13.5967 10.344 13.0886 11.8179 12.1431C11.8389 12.1287 11.8598 12.1576 11.8459 12.1787C11.1283 12.9462 10.2509 13.5492 9.27467 13.9456C8.29845 14.3421 7.24692 14.5224 6.19334 14.4741C5.50455 14.4865 4.82038 14.3603 4.18209 14.103C3.5438 13.8456 2.96462 13.4626 2.47951 12.9769C1.99435 12.4912 1.61329 11.913 1.35931 11.2771C1.10534 10.6412 0.983703 9.96078 1.00175 9.27693C1.00208 8.46164 1.19391 7.65767 1.56198 6.92889C1.93006 6.20012 2.46424 5.56662 3.12208 5.07875C4.00614 4.43229 5.0745 4.08207 6.17242 4.07883H7.81334C8.45434 4.07836 9.08821 3.94534 9.67459 3.68825C10.261 3.43116 10.787 3.05563 11.2192 2.58558C11.2283 2.57553 11.2405 2.56865 11.2538 2.56595C11.2672 2.56308 11.2811 2.56445 11.2936 2.56987C11.3061 2.57529 11.3166 2.58449 11.3235 2.59615C11.3306 2.60785 11.3337 2.62143 11.3326 2.63505C11.263 3.3674 11.0175 4.07249 10.6166 4.69109C10.6107 4.70183 10.608 4.71406 10.6089 4.72628C10.6099 4.7385 10.6144 4.75019 10.6219 4.75992C10.6294 4.76963 10.6395 4.77697 10.6511 4.78107C10.6627 4.78517 10.6752 4.78584 10.6872 4.78301C11.4447 4.6131 12.1514 4.26901 12.7505 3.77842C13.3497 3.28783 13.8244 2.66445 14.1367 1.95843C14.1446 1.94581 14.1555 1.93533 14.1686 1.92791C14.1816 1.92058 14.1964 1.91673 14.2114 1.91673C14.2264 1.91673 14.2412 1.92058 14.2543 1.92791C14.2673 1.93529 14.2783 1.94577 14.2861 1.95843C14.9292 3.18174 15.1461 4.58213 14.903 5.9408ZM6.18898 7.984C6.00022 7.98396 5.81381 8.0255 5.64317 8.10561C5.47253 8.18573 5.32191 8.30243 5.20216 8.4473C5.08242 8.59218 4.99652 8.76163 4.95067 8.94344C4.90482 9.12524 4.90015 9.31489 4.937 9.4987C4.98625 9.74456 5.10781 9.9704 5.28632 10.1477C5.46482 10.3249 5.69225 10.4457 5.93985 10.4946C6.12497 10.5312 6.31595 10.5265 6.49903 10.4809C6.68211 10.4354 6.85274 10.3501 6.99863 10.2312C7.14451 10.1123 7.26202 9.9627 7.34269 9.79327C7.42336 9.62383 7.46517 9.43874 7.46513 9.25133V8.06813C7.46399 8.04549 7.45442 8.02409 7.43828 8.00806C7.42214 7.99204 7.40058 7.98254 7.37779 7.9814L6.18898 7.984Z" fill="black"/>
</svg>
