<svg width="16" height="16" viewBox="0 0 16 16" fill="none" xmlns="http://www.w3.org/2000/svg">
<g clip-path="url(#clip0_3_2528)">
<path fill-rule="evenodd" clip-rule="evenodd" d="M4 9.15527e-05C3.44771 9.15527e-05 3 0.4478 3 1.00009V2.00009C1.89543 2.00009 1 2.89552 1 4.00009V14.0001C1 15.1047 1.89543 16.0001 3 16.0001H13C14.1046 16.0001 15 15.1047 15 14.0001V4.00009C15 2.89552 14.1046 2.00009 13 2.00009V1.00009C13 0.4478 12.5523 9.15527e-05 12 9.15527e-05C11.4477 9.15527e-05 11 0.4478 11 1.00009V2.00009H5V1.00009C5 0.4478 4.55229 9.15527e-05 4 9.15527e-05ZM5 14.0001V12.0001H3V14.0001H5ZM5 8.00009V10.0001H3V8.00009H5ZM9 12.0001H7V14.0001H9V12.0001ZM7 8.00009H9V10.0001H7V8.00009ZM13 14.0001V12.0001H11V14.0001H13ZM13 8.00009V10.0001H11V8.00009H13ZM4 4.00009C3.44771 4.00009 3 4.4478 3 5.00009V6.00009H13V5.00009C13 4.4478 12.5523 4.00009 12 4.00009H4Z" fill="black"/>
</g>
<defs>
<clipPath id="clip0_3_2528">
<rect width="16" height="16" fill="white"/>
</clipPath>
</defs>
</svg>
