<svg width="16" height="16" viewBox="0 0 16 16" fill="none" xmlns="http://www.w3.org/2000/svg">
<g clip-path="url(#clip0_3_2550)">
<path d="M0 5.00003V3.00003H2V2.00003C2 0.90003 2.9 3.05176e-05 4 3.05176e-05H8V7.00003L10.5 5.50003L13 7.00003V3.05176e-05H14C15.1 3.05176e-05 16 0.90003 16 2.00003V14C16 15.1 15.1 16 14 16H4C3 16 2 15.1 2 14V13H0V11H2V9.00003H0V7.00003H2V5.00003H0ZM4 7.00003H2V9.00003H4V7.00003ZM4 5.00003V3.00003H2V5.00003H4ZM4 13V11H2V13H4Z" fill="black"/>
</g>
<defs>
<clipPath id="clip0_3_2550">
<rect width="16" height="16" fill="white"/>
</clipPath>
</defs>
</svg>
