<svg width="16" height="16" viewBox="0 0 16 16" fill="none" xmlns="http://www.w3.org/2000/svg">
<g clip-path="url(#clip0_3_2583)">
<path d="M15 11C15 12.1 14.1749 13 13.1666 13H13V2H4C4.00001 0.900008 4.8249 0 5.83322 0H13.1666C14.1749 0 15 0.900013 15 2.00001V11Z" fill="black"/>
<path fill-rule="evenodd" clip-rule="evenodd" d="M12 14V4.99998C12 3.89998 11.1749 2.99997 10.1666 2.99997H2.83322C1.82489 2.99997 1 3.89998 1 4.99998V14C1 15.1 1.82489 16 2.83322 16H10.1666C11.1749 16 12 15.1 12 14ZM10 14H3V4.99999H10V14Z" fill="black"/>
</g>
<defs>
<clipPath id="clip0_3_2583">
<rect width="16" height="16" fill="white"/>
</clipPath>
</defs>
</svg>
