<svg width="16" height="16" viewBox="0 0 16 16" fill="none" xmlns="http://www.w3.org/2000/svg">
<path d="M1.95319 12.1702C1.59574 12.617 1.32766 13.034 1.14894 13.3915C1.08936 13.4809 1 13.7489 1 13.9277V14.1957C1 14.6426 1.35745 15 1.80426 15H14.1957C14.6426 15 15 14.6426 15 14.1957V4.66383C8.20851 5.85532 4.09787 9.51915 1.95319 12.1702Z" fill="black"/>
<path d="M14.1957 1H1.80426C1.35745 1 1 1.35745 1 1.80426V9.22128C3.44255 6.65957 7.82128 3.82979 14.4638 3.05532C14.6426 3.05532 15 2.96596 15 2.48936V1.80426C15 1.35745 14.6426 1 14.1957 1Z" fill="black"/>
</svg>
