<svg width="16" height="16" viewBox="0 0 16 16" fill="none" xmlns="http://www.w3.org/2000/svg">
<path fill-rule="evenodd" clip-rule="evenodd" d="M2 1H12C13.1046 1 14 1.89543 14 3V13C14 14.1046 13.1046 15 12 15H9V13H12V6H9V9H7V6H4V9H2V1ZM4 3H7V5H4V3ZM12 3H9V5H12V3Z" fill="black"/>
<path fill-rule="evenodd" clip-rule="evenodd" d="M7 13C6.99998 12 6 12 6 12C6 12 6 9.99994 4 9.99994C2 9.99994 2 12 2 12C2 12 0.999957 12 1 13V15C0.999978 16 2 15.9999 2 15.9999L6 16C6 16 6.99998 16 7 15V13ZM3.99998 11C4.99998 11 5 12 5 12H3C3 12 2.99998 11 3.99998 11Z" fill="black"/>
</svg>
