<svg width="16" height="16" viewBox="0 0 16 16" fill="none" xmlns="http://www.w3.org/2000/svg">
<path fill-rule="evenodd" clip-rule="evenodd" d="M2 3C2 1.89543 2.89543 1 4 1H14V9H12V6H9V9H7V6H4V13H7V15H4C2.89543 15 2 14.1046 2 13V3ZM4 3H7V5H4V3ZM12 3H9V5H12V3Z" fill="black"/>
<path fill-rule="evenodd" clip-rule="evenodd" d="M15 13C15 12 14 12 14 12C14 12 14 9.99994 12 9.99994C10 9.99994 10 12 10 12C10 12 8.99998 12 9.00002 13V15C9 16 10 15.9999 10 15.9999L14 16C14 16 15 16 15 15V13ZM12 11C13 11 13 12 13 12H11C11 12 11 11 12 11Z" fill="black"/>
</svg>
