<svg width="16" height="16" viewBox="0 0 16 16" fill="none" xmlns="http://www.w3.org/2000/svg">
<path d="M11.0172 15V14.8163V12.269C11.0172 11.4026 10.701 10.8379 10.3551 10.5501C12.5048 10.3204 14.7632 9.53522 14.7632 5.96988C14.7632 4.95652 14.389 4.12804 13.7695 3.47825C13.8693 3.24463 14.2 2.30012 13.6746 1.02142C13.6746 1.02142 12.8652 0.772335 11.022 1.9729C10.2505 1.76713 9.42423 1.66425 8.60359 1.66038C7.78296 1.66425 6.9575 1.76713 6.18756 1.9729C4.34275 0.772335 3.53177 1.02142 3.53177 1.02142C3.00721 2.29934 3.33788 3.24386 3.43764 3.47825C2.82056 4.12804 2.44323 4.95574 2.44323 5.96988C2.44323 9.52593 4.69755 10.3219 6.84165 10.5579C6.56489 10.7892 6.31468 11.1991 6.22859 11.7987C5.67748 12.0361 4.27999 12.4461 3.41914 11.0274C3.41914 11.0274 2.90906 10.1355 1.93959 10.0705C1.93959 10.0705 0.996664 10.0581 1.87281 10.6344C1.87281 10.6344 2.50598 10.9199 2.94526 11.9928C2.94526 11.9928 3.50442 13.6498 6.18997 13.0882V14.8163C6.18997 14.9396 6.18997 15 6.18997 15C7.76316 15 9.60526 15 11.0172 15Z" fill="black"/>
</svg>
