<svg width="16" height="16" viewBox="0 0 16 16" fill="none" xmlns="http://www.w3.org/2000/svg">
<path fill-rule="evenodd" clip-rule="evenodd" d="M15.8813 9.26107L14.5923 10.5511L12.4436 8.40106L13.7326 7.11105C14.0193 6.82441 14.3774 7.11105 14.6639 7.39773L15.595 8.32939C15.8813 8.61606 16.1678 8.9744 15.8813 9.26107ZM9.99263 3.00011H1.99865V13.0001H5.99631V15.0001H1.99865C0.899324 15.0001 0 14.1001 0 13.0001V3.00011C0 1.90009 0.899324 1.00009 1.99865 1.00009H9.99263C11.092 1.00009 11.9913 1.90009 11.9913 3.00011V6.00009L9.99263 8.00012V3.00011ZM13.8761 11.2677L10.1462 15.0011H7.99753V12.8511L11.7272 9.11774L13.8761 11.2677Z" fill="black"/>
</svg>
