<svg width="16" height="16" viewBox="0 0 16 16" fill="none" xmlns="http://www.w3.org/2000/svg">
<path fill-rule="evenodd" clip-rule="evenodd" d="M2 3C2 1.89543 2.89543 1 4 1H12C13.1046 1 14 1.89543 14 3V10H12V6H9V10H7V6H4V13H7V15H4C2.89543 15 2 14.1046 2 13V3ZM4 3H7V5H4V3ZM12 3H9V5H12V3Z" fill="black"/>
<path d="M9.19829 11.3688C9.07441 11.0681 8.72294 10.9218 8.41324 11.0421C8.10355 11.1624 7.95292 11.5036 8.07679 11.8043C8.18989 12.0789 8.36533 12.335 8.58716 12.5654L8.17689 12.9638C7.94104 13.1928 7.94104 13.564 8.17689 13.793C8.41275 14.0221 8.79514 14.0221 9.031 13.793L9.56561 13.274C9.72753 13.3559 9.8968 13.4284 10.0712 13.4903L9.86704 14.2414C9.78194 14.5545 9.9744 14.8754 10.2969 14.958C10.6194 15.0406 10.9499 14.8538 11.035 14.5406L11.2542 13.7341C11.4132 13.7441 11.5741 13.7451 11.7357 13.7366L11.9471 14.556C12.0282 14.8701 12.3561 15.061 12.6797 14.9823C13.0033 14.9036 13.1998 14.5851 13.1188 14.271L12.9178 13.492C13.0861 13.4288 13.2525 13.3529 13.4157 13.2635L13.9672 13.8035C14.2021 14.0334 14.5845 14.035 14.8213 13.8069C15.0582 13.5789 15.0598 13.2076 14.8249 12.9776L14.3706 12.5328C14.549 12.3496 14.7187 12.1431 14.8775 11.9118C15.0625 11.6424 14.9875 11.2783 14.71 11.0986C14.4325 10.919 14.0575 10.9918 13.8725 11.2613C13.1059 12.3777 12.0583 12.6644 11.1331 12.5446C10.1448 12.4167 9.39547 11.8474 9.19829 11.3688Z" fill="black"/>
</svg>
