<svg width="16" height="16" viewBox="0 0 16 16" fill="none" xmlns="http://www.w3.org/2000/svg">
<g clip-path="url(#clip0_3_2575)">
<path d="M10 6.99994C10 5.89994 9.1 4.99994 8 4.99994C6.9 4.99994 6 5.89994 6 6.99994C6 8.09994 6.9 8.99994 8 8.99994C9.1 8.99994 10 8.09994 10 6.99994Z" fill="black"/>
<path d="M4 11.9999V12.9999H12V11.9999C12 10.8999 10.2 9.99994 8 9.99994C5.8 9.99994 4 10.8999 4 11.9999Z" fill="black"/>
<path fill-rule="evenodd" clip-rule="evenodd" d="M4 6.10352e-05C3.44771 6.10352e-05 3 0.447769 3 1.00006V2.00006C1.89543 2.00006 1 2.89549 1 4.00006V14.0001C1 15.1046 1.89543 16.0001 3 16.0001H13C14.1046 16.0001 15 15.1046 15 14.0001V4.00006C15 2.89549 14.1046 2.00006 13 2.00006V1.00006C13 0.447769 12.5523 6.10352e-05 12 6.10352e-05C11.4477 6.10352e-05 11 0.447769 11 1.00006V2.00006H5V1.00006C5 0.447769 4.55229 6.10352e-05 4 6.10352e-05ZM13 4.99994V14.0001H3V4.99994C3 4.49994 3.5 3.99994 4 3.99994C4.0925 3.99994 4.4075 3.99993 4.86265 3.99993C6.86765 3.9999 11.5925 3.99984 12 3.99994C12.5 4.00006 13 4.49994 13 4.99994Z" fill="black"/>
</g>
<defs>
<clipPath id="clip0_3_2575">
<rect width="16" height="16" fill="white"/>
</clipPath>
</defs>
</svg>
