<svg width="16" height="16" viewBox="0 0 16 16" fill="none" xmlns="http://www.w3.org/2000/svg">
<g clip-path="url(#clip0_3_2585)">
<path d="M7 4.00003C7 3.44775 7.44772 3.00003 8 3.00003C8.55229 3.00003 9 3.44775 9 4.00003V7.00003H11C11.5523 7.00003 12 7.44775 12 8.00003C12 8.55232 11.5523 9.00003 11 9.00003H8C7.44772 9.00003 7 8.55231 7 8.00003V4.00003Z" fill="black"/>
<path fill-rule="evenodd" clip-rule="evenodd" d="M8 16C12.4183 16 16 12.4183 16 8.00003C16 3.58175 12.4183 3.05176e-05 8 3.05176e-05C3.58172 3.05176e-05 0 3.58175 0 8.00003C0 12.4183 3.58172 16 8 16ZM8 14C11.3137 14 14 11.3137 14 8.00003C14 4.68632 11.3137 2.00003 8 2.00003C4.68629 2.00003 2 4.68632 2 8.00003C2 11.3137 4.68629 14 8 14Z" fill="black"/>
</g>
<defs>
<clipPath id="clip0_3_2585">
<rect width="16" height="16" fill="white"/>
</clipPath>
</defs>
</svg>
