<svg width="16" height="16" viewBox="0 0 16 16" fill="none" xmlns="http://www.w3.org/2000/svg">
<path fill-rule="evenodd" clip-rule="evenodd" d="M2 3C2 1.89543 2.89543 1 4 1H12C13.1046 1 14 1.89543 14 3V9H12V6H9V9H7V6H4V13H7V15H4C2.89543 15 2 14.1046 2 13V3ZM4 3H7V5H4V3ZM12 3H9V5H12V3Z" fill="black"/>
<path d="M10 10C8.44213 10 8.09774 11.2135 8.02161 11.75H9.03476C9.10651 11.4538 9.32635 11 10 11C11 11 11 12 11 12C10.4477 12 10 12.4477 10 13V15C10 15.5523 10.4477 16 11 16H15C15.5523 16 16 15.5523 16 15V13C16 12.4477 15.5523 12 15 12H12C12 12 12 10 10 10Z" fill="black"/>
</svg>
