<svg width="16" height="16" viewBox="0 0 16 16" fill="none" xmlns="http://www.w3.org/2000/svg">
<path d="M9.47924 2.21032L8.50015 1L7.52105 2.21032L6.11379 1.54467L5.75679 3.05994L4.20007 3.07081L4.45 4.20213C4.94444 4.07028 5.46402 3.99999 6.00001 3.99999C8.61766 3.99999 10.8438 5.67628 11.6635 8.01395C11.7745 8.00471 11.8867 7.99999 12 7.99999C12.3552 7.99999 12.6995 8.04628 13.0273 8.13315L13.8622 7.72387L12.9001 6.5L13.8622 5.27613L12.4644 4.59091L12.8002 3.07081L11.2435 3.05994L10.8865 1.54467L9.47924 2.21032Z" fill="black"/>
<path d="M6 15C3.23858 15 1 12.7614 1 10C1 7.23858 3.23858 5 6 5C8.48716 5 10.5502 6.81599 10.9354 9.19437C11.2663 9.06877 11.6251 9 12 9C13.6569 9 15 10.3431 15 12C15 13.6569 13.6569 15 12 15H6Z" fill="black"/>
</svg>
